<svg width="91" height="49" viewBox="0 0 91 49" fill="none" xmlns="http://www.w3.org/2000/svg">
<g clip-path="url(#clip0)">
<path fill-rule="evenodd" clip-rule="evenodd" d="M90.9999 23.478C90.9999 27.0573 90.9999 30.576 90.9999 34.1553C90.9999 34.58 90.8785 34.8227 90.4539 34.8833C75.5905 38.402 60.7272 41.9207 45.9245 45.4393C45.6819 45.5 45.3786 45.5 45.1359 45.4393C33.1845 42.588 21.1725 39.7973 9.22121 36.946C6.36988 36.2787 3.51855 35.5507 0.667214 34.944C0.18188 34.8227 0.0605469 34.6407 0.0605469 34.1553C0.0605469 27.0573 0.0605469 19.9593 0.0605469 12.8613C0.0605469 12.4367 0.121214 12.194 0.606547 12.0727C15.4699 8.55399 30.3332 5.03532 45.1359 1.57732C45.4999 1.51666 45.8639 1.51666 46.2279 1.63799C60.9699 5.15666 75.7119 8.61466 90.4539 12.1333C90.8785 12.2547 91.0605 12.376 91.0605 12.8613C90.9999 16.38 90.9999 19.8987 90.9999 23.478ZM89.4832 23.5387C89.4832 20.4447 89.4832 17.3507 89.4832 14.2567C89.4832 13.7107 89.3619 13.3467 88.7552 13.286C88.3912 13.2253 87.9665 13.104 87.6025 13.0433C73.7099 9.70666 59.8172 6.36999 45.8639 3.03332C45.6212 2.97266 45.3179 2.97266 45.0752 3.03332C30.8186 6.43066 16.5619 9.88866 2.24455 13.286C1.63788 13.4073 1.45588 13.65 1.45588 14.2567C1.45588 20.02 1.45588 25.7833 1.45588 31.5467C1.45588 32.214 1.27388 33.0027 1.57721 33.4273C1.88055 33.852 2.72988 33.7913 3.33655 33.9733C17.2292 37.31 31.1219 40.6467 45.0752 43.9833C45.3179 44.044 45.6212 44.044 45.8639 43.9833C60.1812 40.586 74.4985 37.128 88.8159 33.7307C89.3012 33.6093 89.4832 33.4273 89.4832 32.942C89.4832 29.7267 89.4832 26.6327 89.4832 23.5387Z" fill="white"/>
<path fill-rule="evenodd" clip-rule="evenodd" d="M66.8545 24.024C66.8545 21.7186 66.8545 19.3526 66.8545 17.0473C66.8545 15.9553 67.2185 15.652 68.2498 15.652C69.2812 15.652 70.2518 15.652 71.2832 15.652C72.1932 15.652 72.5572 16.016 72.5572 16.926C72.5572 18.1393 72.5572 19.3526 72.5572 20.566C72.5572 24.024 72.5572 27.482 72.5572 30.94C72.5572 32.0926 72.2538 32.396 71.1012 32.396C70.1305 32.396 69.0992 32.396 68.1285 32.396C67.2185 32.396 66.8545 32.032 66.8545 31.122C66.8545 28.756 66.8545 26.39 66.8545 24.024ZM69.4632 30.8186C70.0698 31.0613 70.0092 30.6366 70.0092 30.3333C70.0092 26.1473 70.0092 21.9613 70.0092 17.7753C70.0092 17.5933 70.0092 17.4113 70.0092 17.2293C69.4025 17.0473 69.4632 17.4113 69.4632 17.7753C69.4632 21.9613 69.4632 26.1473 69.4632 30.3333C69.4025 30.4546 69.4025 30.6366 69.4632 30.8186Z" fill="white"/>
<path fill-rule="evenodd" clip-rule="evenodd" d="M55.8131 15.652C57.3904 15.652 58.9678 15.5913 60.4844 15.652C61.2731 15.652 61.6978 16.2586 61.6978 17.0473C61.6978 19.4133 61.6978 21.7793 61.6978 24.1453C61.6978 25.4193 61.0304 26.0866 59.7564 26.0866C59.2711 26.0866 58.8464 26.0866 58.3004 26.0866C58.3004 28.21 58.3004 30.212 58.3004 32.3353C57.4511 32.3353 56.6018 32.3353 55.7524 32.3353C55.8131 26.8146 55.8131 21.2333 55.8131 15.652ZM59.2104 24.5093C59.2104 22.022 59.2104 19.5953 59.2104 17.1686C58.9071 17.1686 58.6644 17.1686 58.4218 17.1686C58.4218 19.656 58.4218 22.0826 58.4218 24.5093C58.6644 24.5093 58.9071 24.5093 59.2104 24.5093Z" fill="white"/>
<path fill-rule="evenodd" clip-rule="evenodd" d="M39.2515 17.1686C38.8268 17.1686 38.5235 17.1686 38.1595 17.1686C38.1595 17.3506 38.0988 17.5326 38.0988 17.7146C38.0988 21.84 38.0988 25.9653 38.0988 30.0906C38.0988 30.3333 38.1595 30.576 38.2808 30.758C38.4021 30.8793 38.7055 30.94 38.8875 30.8186C39.0695 30.6973 39.1908 30.4546 39.1908 30.2726C39.1908 28.8166 39.1908 27.3606 39.1908 25.9046C39.1908 25.662 39.1908 25.4193 39.1908 25.1766C39.9795 25.1766 40.7075 25.1766 41.4355 25.1766C41.4355 25.3586 41.4961 25.5406 41.4961 25.662C41.4961 27.482 41.4961 29.2413 41.4961 31.0613C41.4961 32.032 41.0715 32.396 40.1615 32.396C39.1908 32.396 38.2808 32.396 37.3101 32.396C36.0968 32.396 35.7935 32.032 35.7935 30.8793C35.7935 26.208 35.7935 21.5973 35.7935 16.926C35.7935 15.8946 36.0968 15.5913 37.1281 15.5913C38.1595 15.5913 39.1301 15.5913 40.1615 15.5913C41.0108 15.5913 41.4961 16.0766 41.4961 16.926C41.4961 18.2606 41.4961 19.5953 41.4961 20.9906C40.7075 20.9906 39.9795 20.9906 39.1908 20.9906C39.2515 19.7166 39.2515 18.5033 39.2515 17.1686Z" fill="white"/>
<path fill-rule="evenodd" clip-rule="evenodd" d="M27.725 19.656C27.9677 18.3213 28.2103 16.9866 28.453 15.652C29.1203 15.652 29.7877 15.652 30.455 15.652C30.0303 18.1393 29.6057 20.566 29.3023 22.9926C29.181 23.842 29.363 24.752 29.4843 25.6013C29.7877 27.846 30.1517 30.03 30.5157 32.3353C29.8483 32.3353 29.181 32.3353 28.5137 32.3353C28.271 30.394 28.0283 28.5133 27.7857 26.572C27.725 26.572 27.6643 26.572 27.6037 26.572C27.361 28.4526 27.1183 30.394 26.8757 32.3353C26.2083 32.3353 25.541 32.3353 24.8737 32.3353C25.1163 30.758 25.2983 29.1806 25.541 27.6033C25.723 26.3293 26.0263 24.9946 26.087 23.7206C26.1477 22.6893 25.8443 21.7186 25.6623 20.6873C25.4197 19.0493 25.1163 17.3506 24.813 15.652C25.4803 15.652 26.087 15.652 26.815 15.652C27.0577 16.9866 27.3003 18.3213 27.543 19.656C27.6037 19.656 27.6643 19.656 27.725 19.656Z" fill="white"/>
<path fill-rule="evenodd" clip-rule="evenodd" d="M18.3819 22.4466C18.8672 22.4466 19.3525 22.4466 19.8985 22.4466C19.8985 22.932 19.8985 23.4173 19.8985 23.9026C19.4132 23.9026 18.9279 23.9633 18.3819 23.9633C18.3819 26.2686 18.3819 28.5133 18.3819 30.8186C18.8672 30.8186 19.3525 30.8186 19.8985 30.8186C19.8985 31.3646 19.8985 31.7893 19.8985 32.2746C18.6245 32.2746 17.4112 32.2746 16.1372 32.2746C16.1372 26.754 16.1372 21.1726 16.1372 15.5913C17.3505 15.5913 18.6245 15.5913 19.8985 15.5913C19.8985 16.0766 19.8985 16.5013 19.8985 17.0473C19.4132 17.0473 18.9279 17.0473 18.4425 17.0473C18.3819 18.928 18.3819 20.6266 18.3819 22.4466Z" fill="white"/>
<path fill-rule="evenodd" clip-rule="evenodd" d="M49.9891 32.396C49.2005 32.396 48.4725 32.396 47.6838 32.396C47.6838 27.3606 47.6838 22.3253 47.6838 17.1686C47.1985 17.1686 46.8345 17.108 46.3491 17.108C46.3491 16.6226 46.3491 16.1373 46.3491 15.652C47.8658 15.652 49.3825 15.652 50.8991 15.652C50.8991 16.0766 50.8991 16.562 50.8991 17.0473C50.5958 17.0473 50.2925 17.108 49.9285 17.108C49.9891 22.204 49.9891 27.2393 49.9891 32.396Z" fill="white"/>
<path fill-rule="evenodd" clip-rule="evenodd" d="M11.2235 17.108C10.7988 17.108 10.4348 17.1686 9.94946 17.1686C9.94946 22.2646 9.94946 27.3 9.94946 32.396C9.16079 32.396 8.43279 32.396 7.64413 32.396C7.64413 27.3606 7.64413 22.2646 7.64413 17.2293C7.28013 17.2293 6.97679 17.1686 6.61279 17.1686C6.61279 16.6833 6.61279 16.2586 6.61279 15.7126C8.12946 15.7126 9.64613 15.7126 11.1628 15.7126C11.2235 16.1373 11.2235 16.562 11.2235 17.108Z" fill="white"/>
<path fill-rule="evenodd" clip-rule="evenodd" d="M77.957 15.652C78.685 15.652 79.413 15.652 80.2624 15.652C80.2624 18.0786 80.2624 20.5053 80.2624 22.932C80.3837 22.932 80.4444 22.932 80.5657 22.932C80.9297 20.5053 81.2937 18.0786 81.6577 15.5913C82.4464 15.5913 83.1137 15.5913 83.9024 15.5913C83.9024 21.1726 83.9024 26.6933 83.9024 32.2746C83.1744 32.2746 82.4464 32.2746 81.597 32.2746C81.597 29.484 81.597 26.6933 81.597 23.9633C81.4757 23.9633 81.415 23.9633 81.2937 23.9633C80.9297 26.754 80.5657 29.5446 80.2017 32.3353C79.413 32.3353 78.685 32.3353 77.957 32.3353C77.957 26.8146 77.957 21.2333 77.957 15.652Z" fill="white"/>
<path fill-rule="evenodd" clip-rule="evenodd" d="M79.292 12.74C80.384 12.74 81.4153 12.74 82.5073 12.74C82.5073 13.286 82.5073 13.832 82.5073 14.4387C81.476 14.4387 80.384 14.4387 79.292 14.4387C79.292 13.8927 79.292 13.3467 79.292 12.74Z" fill="white"/>
</g>
<defs>
<clipPath id="clip0">
<rect width="91" height="48.5333" fill="white"/>
</clipPath>
</defs>
</svg>
